<svg id="Bold" enable-background="new 0 0 24 24" height="512" viewBox="0 0 24 24" width="512" xmlns="http://www.w3.org/2000/svg"><path d="m3.35 7.01c.08-.14.16-.28.25-.42.41.2.86.38 1.32.55.26-.09.54-.14.83-.14h1.13c.94 0 1.8.33 2.5.87.65-.54 1.47-.87 2.37-.87h1.5c.45 0 .87.12 1.25.31.17-.09.36-.17.56-.22.23-.06.46-.09.69-.09.44 0 .87.11 1.25.3.38-.19.8-.3 1.25-.3.29 0 .57.05.83.14.46-.17.91-.35 1.32-.55.09.14.17.28.25.42.03-.01.07-.01.1-.01h1.5c.24 0 .47.02.69.07-1.88-4.17-6.08-7.07-10.94-7.07-4.84 0-9.01 2.87-10.91 7h2.16c.03 0 .07 0 .1.01zm15.76-2.03c-.57.25-1.2.46-1.87.63-.32-1.03-.72-1.96-1.18-2.74 1.15.51 2.18 1.23 3.05 2.11zm-6.11-2.63c.86.58 1.68 1.86 2.26 3.67-.73.11-1.48.18-2.26.21zm-2 0v3.88c-.78-.03-1.53-.1-2.26-.21.58-1.81 1.4-3.09 2.26-3.67zm-3.06.52c-.46.78-.86 1.71-1.18 2.74-.67-.17-1.3-.38-1.87-.63.87-.88 1.9-1.6 3.05-2.11zm12.81 14.13c-.03 0-.07 0-.1-.01-.08.14-.16.28-.25.42-.41-.2-.86-.38-1.32-.54-.04.01-.09.03-.14.04-.23.06-.46.09-.69.09-.44 0-.87-.11-1.25-.3-.38.19-.8.3-1.25.3s-.87-.12-1.25-.31c-.38.19-.8.31-1.25.31h-1.5c-.69 0-1.33-.2-1.89-.53-.46.34-1.02.53-1.61.53-.44 0-.86-.11-1.24-.31-.38.2-.81.31-1.26.31-.29 0-.57-.05-.83-.14-.46.17-.91.35-1.32.55-.14-.22-.28-.45-.4-.69-.36.18-.77.28-1.2.28-.35 0-.69-.07-1-.19 1.86 4.23 6.09 7.19 11 7.19 4.86 0 9.06-2.9 10.94-7.07-.22.05-.45.07-.69.07zm-15.86 2.02c.57-.25 1.2-.46 1.87-.63.32 1.03.72 1.96 1.18 2.74-1.15-.51-2.18-1.23-3.05-2.11zm6.11 2.63c-.86-.58-1.68-1.86-2.26-3.67.73-.11 1.48-.18 2.26-.21zm2 0v-3.88c.78.03 1.53.1 2.26.21-.58 1.81-1.4 3.09-2.26 3.67zm3.06-.52c.46-.78.86-1.71 1.18-2.74.67.17 1.3.38 1.87.63-.87.88-1.9 1.6-3.05 2.11z"/><path fill="white" d="m22.25 15h-1.5c-.414 0-.75-.336-.75-.75v-4.5c0-.414.336-.75.75-.75h1.5c.965 0 1.75.785 1.75 1.75v2.5c0 .965-.785 1.75-1.75 1.75zm-.75-1.5h.75c.138 0 .25-.112.25-.25v-2.5c0-.138-.112-.25-.25-.25h-.75z"/><path fill="white" d="m13.25 12.75h-2.5c-.414 0-.75-.336-.75-.75s.336-.75.75-.75h2.5c.414 0 .75.336.75.75s-.336.75-.75.75z"/><path fill="white" d="m13.25 15h-1.5c-.965 0-1.75-.785-1.75-1.75v-2.5c0-.965.785-1.75 1.75-1.75h1.5c.414 0 .75.336.75.75s-.336.75-.75.75h-1.5c-.138 0-.25.112-.25.25v2.5c0 .138.112.25.25.25h1.5c.414 0 .75.336.75.75s-.336.75-.75.75z"/><path fill="white" d="m2 15c-.414 0-.75-.336-.75-.75v-4.5c0-.414.336-.75.75-.75s.75.336.75.75v4.5c0 .414-.336.75-.75.75z"/><path fill="white" d="m3.25 10.5h-2.5c-.414 0-.75-.336-.75-.75s.336-.75.75-.75h2.5c.414 0 .75.336.75.75s-.336.75-.75.75z"/><path fill="white" d="m5.75 15c-.414 0-.75-.336-.75-.75v-4.5c0-.414.336-.75.75-.75h1.125c1.172 0 2.125.953 2.125 2.125s-.953 2.125-2.125 2.125h-.375v1c0 .414-.336.75-.75.75zm.75-3.25h.375c.345 0 .625-.28.625-.625s-.28-.625-.625-.625h-.375z"/><path fill="white" d="m8.25 15c-.175 0-.351-.061-.493-.186l-2-1.75c-.312-.273-.344-.747-.071-1.058.272-.311.747-.344 1.058-.071l2 1.75c.312.273.344.747.071 1.058-.149.17-.357.257-.565.257z"/><path fill="white" d="m18.25 15c-.268 0-.521-.144-.656-.386l-1.094-1.97v1.605c0 .414-.336.75-.75.75s-.75-.335-.75-.749v-4.5c0-.342.231-.64.562-.726.33-.084.678.063.844.362l1.094 1.97v-1.606c0-.414.336-.75.75-.75s.75.336.75.75v4.5c0 .342-.231.64-.562.726-.063.016-.125.024-.188.024z"/></svg>